<svg xmlns="http://www.w3.org/2000/svg">
  <symbol id="earth" viewBox="0 0 285.93 250">
    <title>Earth symbol</title>
    <path d="M276.94,0H9A9,9,0,0,0,1.22,13.46l134,232.06a9,9,0,0,0,15.54,0l134-232.06A9,9,0,0,0,276.94,0ZM107.18,137h89.5l-44.75,77.51ZM210.5,113H93.37L42.29,24.56H261.58Z" />
  </symbol>

  <symbol id="water" viewBox="0 0 285.93 250">
    <title>Water symbol</title>
    <path d="M1.22,13.46l134,232.06a9,9,0,0,0,15.54,0l134-232.06A9,9,0,0,0,276.94,0H9A9,9,0,0,0,1.22,13.46ZM261.58,24.56,151.93,214.47,42.29,24.56Z" />
  </symbol>

  <symbol id="air" viewBox="0 0 285.93 250">
    <title>Air symbol</title>
    <path d="M284.71,236.54,150.73,4.49a9,9,0,0,0-15.54,0L1.22,236.54A9,9,0,0,0,9,250h268A9,9,0,0,0,284.71,236.54ZM178.74,113H89.24L134,35.53ZM24.35,225.44,75.43,137H192.56l51.08,88.48Z" />
  </symbol>

  <symbol id="fire" viewBox="0 0 285.93 250">
    <title>Fire symbol</title>
    <path d="M284.71,236.54,150.73,4.49a9,9,0,0,0-15.54,0L1.22,236.54A9,9,0,0,0,9,250h268A9,9,0,0,0,284.71,236.54ZM24.35,225.44,134,35.53,243.64,225.44Z" />
  </symbol>

  <symbol id="aether" viewBox="0 0 250 250">
    <title>Aether symbol</title>
    <path d="M125,0A125,125,0,1,0,250,125,125,125,0,0,0,125,0Zm0,235c-52.47,0-95-49.25-95-110S72.53,15,125,15s95,49.25,95,110S177.47,235,125,235Z" />
  </symbol>
  
  <symbol id="harmony" viewBox="0 0 800 800">
    <title>Harmony symbol</title>
    <path d="M3780 7834 c-19 -2 -91 -9 -159 -14 -177 -16 -340 -44 -549 -95 -782
    -193 -1478 -627 -2006 -1251 -501 -592 -802 -1302 -888 -2094 -16 -148 -16
    -612 0 -760 86 -792 387 -1502 888 -2094 243 -287 515 -529 819 -729 463 -303
    936 -490 1470 -581 230 -40 375 -51 645 -51 351 0 604 30 925 109 1374 339
    2462 1427 2801 2801 41 166 77 372 96 545 17 162 17 598 0 760 -69 640 -269
    1201 -619 1735 -627 955 -1657 1581 -2808 1705 -102 11 -552 21 -615 14z
    m-100 -2084 l0 -1430 -1430 0 -1430 0 0 25 c0 14 7 71 15 128 84 555 297 1050
    651 1507 114 148 386 420 534 534 350 271 720 458 1125 570 172 47 407 92 498
    95 l37 1 0 -1430z m793 1415 c465 -70 898 -236 1283 -490 190 -127 333 -244
    504 -415 496 -496 801 -1099 905 -1787 8 -57 15 -114 15 -128 l0 -25 -1430 0
    -1430 0 0 1430 0 1430 25 0 c14 0 71 -7 128 -15z m-793 -4915 l0 -1430 -25 0
    c-80 0 -361 54 -530 101 -524 148 -989 423 -1385 819 -496 496 -801 1099 -905
    1787 -8 57 -15 114 -15 128 l0 25 1430 0 1430 0 0 -1430z m3496 1364 c-56
    -548 -295 -1121 -670 -1604 -104 -135 -381 -412 -516 -516 -483 -375 -1056
    -614 -1604 -670 l-66 -7 0 1432 0 1431 1431 0 1432 0 -7 -66z"/>
  </symbol>
</svg>
