<?xml version="1.0" standalone="no"?>
<!DOCTYPE svg PUBLIC "-//W3C//DTD SVG 20010904//EN"
 "http://www.w3.org/TR/2001/REC-SVG-20010904/DTD/svg10.dtd">
<svg version="1.0" xmlns="http://www.w3.org/2000/svg"
 width="800.000000pt" height="800.000000pt" viewBox="0 0 800.000000 800.000000"
 preserveAspectRatio="xMidYMid meet">
<metadata>
Created by potrace 1.13, written by Peter Selinger 2001-2015
</metadata>
<g transform="translate(0.000000,800.000000) scale(0.100000,-0.100000)"
fill="#000000" stroke="none">
<path d="M3780 7834 c-19 -2 -91 -9 -159 -14 -177 -16 -340 -44 -549 -95 -782
-193 -1478 -627 -2006 -1251 -501 -592 -802 -1302 -888 -2094 -16 -148 -16
-612 0 -760 86 -792 387 -1502 888 -2094 243 -287 515 -529 819 -729 463 -303
936 -490 1470 -581 230 -40 375 -51 645 -51 351 0 604 30 925 109 1374 339
2462 1427 2801 2801 41 166 77 372 96 545 17 162 17 598 0 760 -69 640 -269
1201 -619 1735 -627 955 -1657 1581 -2808 1705 -102 11 -552 21 -615 14z
m-100 -2084 l0 -1430 -1430 0 -1430 0 0 25 c0 14 7 71 15 128 84 555 297 1050
651 1507 114 148 386 420 534 534 350 271 720 458 1125 570 172 47 407 92 498
95 l37 1 0 -1430z m793 1415 c465 -70 898 -236 1283 -490 190 -127 333 -244
504 -415 496 -496 801 -1099 905 -1787 8 -57 15 -114 15 -128 l0 -25 -1430 0
-1430 0 0 1430 0 1430 25 0 c14 0 71 -7 128 -15z m-793 -4915 l0 -1430 -25 0
c-80 0 -361 54 -530 101 -524 148 -989 423 -1385 819 -496 496 -801 1099 -905
1787 -8 57 -15 114 -15 128 l0 25 1430 0 1430 0 0 -1430z m3496 1364 c-56
-548 -295 -1121 -670 -1604 -104 -135 -381 -412 -516 -516 -483 -375 -1056
-614 -1604 -670 l-66 -7 0 1432 0 1431 1431 0 1432 0 -7 -66z"/>
</g>
</svg>
